# xmcd
#
# Track frame offsets:
# 150
# 29099
# 51204
# 85966
# 120156
# 149535
# 183011
# 225433
# 258026
# 299746
#
# Disc length: 4620 seconds
#
#
# Revision: 0
# Processed by: cddbd v1.5.2PL0 Copyright (c) Steve Scherf et al.
# Submitted via: FreeRIP 2.945 
#
DISCID=87120a0a
DTITLE=Herriot-J1977 - Wise-Wonderful11
DYEAR=1977
DGENRE=Jungle
TTITLE0=WW 1101
TTITLE1=WW 1102
TTITLE2=WW 1103
TTITLE3=WW 1104
TTITLE4=WW 1105
TTITLE5=WW 1106
TTITLE6=WW 1107
TTITLE7=WW 1108
TTITLE8=WW 1109
TTITLE9=WW 1110
EXTD=All Things Wise and Wonderful 12 CDs\nby James Herriot - read by Christopher Timothy\nRennasance Audio - Jungle Country
EXTT0=
EXTT1=
EXTT2=
EXTT3=
EXTT4=
EXTT5=
EXTT6=
EXTT7=
EXTT8=
EXTT9=
PLAYORDER=
